Mission.Impossible.1996 .720p.Bluray.x264.anoXmous

Format                           : MPEG-4
Format profile                   : Base Media
Codec ID                         : isom
File size                        : 700 MiB
Duration                         : 1h 50mn
Overall bit rate mode            : Variable
Overall bit rate                 : 887 Kbps


Video
ID                               : 1
Format                           : AVC
Format/Info                      : Advanced Video Codec
Format profile                   : High@L4.1
Format settings, CABAC           : Yes
Format settings, ReFrames        : 4 frames
Codec ID                         : avc1
Codec ID/Info                    : Advanced Video Coding
Duration                         : 1h 50mn
Bit rate                         : 814 Kbps
Maximum bit rate                 : 5 851 Kbps
Width                            : 1 280 pixels
Height                           : 528 pixels
Display aspect ratio             : 2.40:1
Frame rate mode                  : Constant
Frame rate                       : 23.976 fps
Color space                      : YUV
Chroma subsampling               : 4:2:0
Bit depth                        : 8 bits
Scan type                        : Progressive
Bits/(Pixel*Frame)               : 0.050
Stream size                      : 642 MiB (92%)
Writing library                  : x264 core 120 r2120 0c7dab9


Audio
ID                               : 2
Format                           : AAC
Format/Info                      : Advanced Audio Codec
Format profile                   : LC
Codec ID                         : 40
Duration                         : 1h 50mn
Bit rate mode                    : Variable
Bit rate                         : 72.0 Kbps
Maximum bit rate                 : 102 Kbps
Channel(s)                       : 2 channels
Channel positions                : Front: L R
Sampling rate                    : 48.0 KHz 
Compression mode                 : Lossy
Stream size                      : 55.6 MiB (8%)


Menu
00:00:00.000                     : Kiev
00:03:00.972                     : Good Morning, Mr. Phelps
00:10:44.727                     : Golitsyn
00:26:43.811                     : Mole Hunt
00:32:21.481                     : Job 3:14
00:39:50.388                     : Max
00:49:39.143                     : Disavowed
00:55:45.634                     : The Black Vault
01:12:25.716                     : NOC List
01:18:34.460                     : No More Secrets
01:28:14.539                     : Masquerade
01:38:06.714                     : Red Light Green Light
01:44:02.778                     : "Aruba, Perhaps?"

                              SUB:
    Mission.Impossible.1996 .720p.Bluray.x264.anoXmous_eng.srt
    Mission.Impossible.1996 .720p.Bluray.x264.anoXmous_swe.srt

             http://www.imdb.com/title/tt0117060/

  +++++++++ This work very fine with PSP and XBOX :) ++++++++++